<?xml version="1.0" encoding="utf-8"?>
<!-- Generator: Adobe Illustrator 19.0.0, SVG Export Plug-In . SVG Version: 6.00 Build 0)  -->
<svg version="1.1" id="Capa_1" xmlns="http://www.w3.org/2000/svg" xmlns:xlink="http://www.w3.org/1999/xlink" x="0px" y="0px"
	 viewBox="31 26 142.2 30" style="enable-background:new 31 26 142.2 30;" xml:space="preserve">
<style type="text/css">
	.st0{fill:#364A5E;}
	.st1{fill:none;stroke:#FFFFFF;stroke-width:1.1914;stroke-linecap:round;stroke-linejoin:round;stroke-miterlimit:10;}
	.st2{fill:none;stroke:#FFFFFF;stroke-width:2;stroke-linecap:round;stroke-linejoin:round;stroke-miterlimit:10;}
	.st3{fill:#FFFFFF;}
	.st4{fill:#575756;}
	.st5{fill:#35A8E0;}
	.st6{fill:#FCFCFC;}
</style>
<g>
	<circle id="XMLID_527_" class="st0" cx="-842.3" cy="127" r="14.3"/>
	<g id="XMLID_521_">
		<circle id="XMLID_526_" class="st1" cx="-848.9" cy="133.4" r="1.2"/>
		<path id="XMLID_525_" class="st2" d="M-849,131v-8.4c0,0,0.2-2.5,3-2.4c3.1,0.1,3,3,3,3.4s0,6,0,6s0.3,3,3,3
			c2.6,0.1,2.9-2.2,3-2.6c0.1-0.8,0-4.6,0-4.6"/>
		<path id="XMLID_522_" class="st3" d="M-838.3,124.4c0.5,1.1,1.1,2.1,1.1,2.1c0,0.1,0.1,0.1,0.2,0.1s0.2,0,0.2-0.1
			c0,0,0.5-1,1.1-2.1c0.7-1.5,1.1-2.6,1.1-3.1c0-1.3-1-2.3-2.3-2.3s-2.3,1-2.3,2.3C-839.4,121.8-839,122.8-838.3,124.4z
			 M-837.1,120.3c0.6,0,1.1,0.5,1.1,1.1c0,0.5-0.7,2-1.1,2.8c-0.4-0.8-1.1-2.3-1.1-2.8C-838.1,120.9-837.6,120.3-837.1,120.3z"/>
	</g>
	<g id="XMLID_510_">
		<path id="XMLID_518_" class="st0" d="M-815.3,128.5h-4.1l-0.8,2.1h-2.6l4.1-9.9h2.7l4.1,9.9h-2.6L-815.3,128.5z M-816,126.6
			l-1.4-3.6l-1.3,3.6H-816z"/>
		<path id="XMLID_514_" class="st0" d="M-801.6,126.4c0.3,0.4,0.5,0.9,0.5,1.5c0,1-0.3,1.7-1,2.1c-0.6,0.5-1.5,0.7-2.7,0.7h-5.7v-10
			h5.5c1,0,1.9,0.2,2.4,0.7c0.6,0.5,0.9,1.1,0.9,1.9c0,0.5-0.1,0.9-0.3,1.3s-0.5,0.6-0.9,0.8C-802.4,125.6-802,126-801.6,126.4z
			 M-808.1,122.7v1.9h2.8c0.4,0,0.7-0.1,1-0.2c0.2-0.1,0.3-0.4,0.3-0.7c0-0.3-0.1-0.6-0.3-0.7c-0.2-0.2-0.5-0.3-0.9-0.3
			C-805.2,122.7-808.1,122.7-808.1,122.7z M-804,128.4c0.3-0.2,0.4-0.4,0.4-0.8s-0.1-0.7-0.4-0.8c-0.3-0.2-0.6-0.3-1-0.3h-3v2.2h3
			C-804.6,128.7-804.3,128.6-804,128.4z"/>
		<path id="XMLID_511_" class="st0" d="M-797.1,130.3c-0.8-0.4-1.5-1-1.9-1.8c-0.5-0.8-0.7-1.7-0.7-2.8c0-1.1,0.2-2,0.7-2.8
			s1.1-1.4,2-1.8c0.8-0.4,1.7-0.6,2.6-0.6c0.8,0,1.7,0.2,2.4,0.5c0.8,0.3,1.4,0.7,1.9,1.3l-1.2,1.4c-0.4-0.3-0.9-0.6-1.4-0.8
			c-0.5-0.2-1-0.3-1.6-0.3s-1.1,0.1-1.6,0.4s-0.8,0.6-1.1,1.1s-0.4,1-0.4,1.7c0,0.6,0.1,1.2,0.4,1.7s0.6,0.8,1.1,1.1
			c0.5,0.3,1,0.4,1.6,0.4c0.5,0,1-0.1,1.5-0.3s1-0.5,1.4-0.8l1.2,1.4c-0.5,0.5-1.2,0.9-1.9,1.3c-0.8,0.3-1.6,0.5-2.4,0.5
			C-795.4,130.9-796.2,130.7-797.1,130.3z"/>
	</g>
	<g id="XMLID_448_">
		<g>
			<path id="XMLID_152_" class="st0" d="M-780.2,127.3h-2.1v3.4h-2.3v-9.9h4.8c0.7,0,1.4,0.1,1.9,0.2s1,0.4,1.3,0.7
				c0.3,0.3,0.5,0.6,0.6,1s0.2,0.8,0.2,1.2c0,0.7-0.2,1.3-0.5,1.8s-0.8,0.8-1.5,1.1l2.4,3.7h-2.8L-780.2,127.3z M-782.3,125.3h2.6
				c0.5,0,0.9-0.1,1.2-0.3s0.4-0.5,0.4-1c0-0.4-0.1-0.7-0.4-0.9c-0.3-0.2-0.7-0.3-1.2-0.3h-2.6V125.3z"/>
			<path id="XMLID_149_" class="st0" d="M-766.8,127.8h-5.2c0.1,0.5,0.4,0.9,0.7,1.1c0.4,0.2,0.8,0.4,1.4,0.4c0.7,0,1.5-0.2,2.3-0.6
				l0.6,1.4c-0.4,0.3-0.9,0.5-1.5,0.6c-0.5,0.1-1.1,0.2-1.6,0.2c-0.8,0-1.6-0.2-2.2-0.5c-0.6-0.3-1.1-0.8-1.5-1.3
				c-0.4-0.6-0.5-1.3-0.5-2c0-0.8,0.2-1.4,0.5-2s0.8-1,1.4-1.4c0.6-0.3,1.3-0.5,2.1-0.5c0.7,0,1.3,0.1,1.8,0.4s1,0.7,1.3,1.2
				s0.5,1.1,0.5,1.8C-766.6,127-766.6,127.4-766.8,127.8z M-769.1,125.3c-0.3-0.3-0.7-0.4-1.1-0.4c-0.5,0-0.8,0.1-1.2,0.4
				c-0.3,0.3-0.5,0.6-0.6,1.2h3.4C-768.6,125.9-768.8,125.5-769.1,125.3z"/>
			<path id="XMLID_147_" class="st0" d="M-763.2,130.4c-0.6-0.3-1.1-0.8-1.5-1.4s-0.5-1.3-0.5-2c0-0.8,0.2-1.4,0.5-2s0.8-1,1.5-1.4
				c0.6-0.3,1.3-0.5,2.2-0.5c1.2,0,2.3,0.3,3.1,1l-0.9,1.4c-0.3-0.2-0.6-0.4-0.9-0.5c-0.4,0-0.8,0-1.1,0c-0.7,0-1.2,0.2-1.6,0.6
				c-0.4,0.4-0.6,0.9-0.6,1.5s0.2,1.1,0.6,1.5c0.4,0.4,0.9,0.5,1.6,0.5c0.4,0,0.7-0.1,1.1-0.2c0.4-0.1,0.7-0.3,0.9-0.5l0.9,1.4
				c-0.5,0.3-1,0.6-1.5,0.8c-0.5,0.2-1.1,0.3-1.7,0.3C-761.9,130.9-762.6,130.7-763.2,130.4z"/>
			<path id="XMLID_145_" class="st0" d="M-749,123.4v7.2h-1.9l-0.1-0.8c-0.4,0.3-0.8,0.6-1.2,0.8c-0.4,0.2-0.9,0.3-1.5,0.3
				c-0.9,0-1.6-0.3-2.1-0.8s-0.7-1.3-0.7-2.3v-4.3h2.2v4c0,1.1,0.5,1.7,1.4,1.7c0.6,0,1.2-0.2,1.7-0.7v-4.9h2.2L-749,123.4
				L-749,123.4z"/>
			<path id="XMLID_143_" class="st0" d="M-742.4,123.3c0.2,0,0.4,0.1,0.5,0.1l-0.3,1.8c-0.3-0.1-0.6-0.2-0.9-0.2
				c-0.6,0-1.2,0.2-1.5,0.7c-0.1,0.1-0.2,0.3-0.3,0.4v4.5h-2.2v-7.2h1.8l0.2,0.9c0.1-0.1,0.1-0.2,0.3-0.3c0.5-0.5,1.1-0.8,1.9-0.8
				C-742.8,123.3-742.6,123.3-742.4,123.3z"/>
			<path id="XMLID_141_" class="st0" d="M-739.5,130.6c-0.6-0.2-1.1-0.4-1.5-0.7l0.8-1.4c0.4,0.2,0.8,0.4,1.3,0.5s0.9,0.2,1.3,0.2
				c0.4,0,0.7-0.1,0.9-0.2s0.3-0.3,0.3-0.4c0-0.2-0.1-0.3-0.3-0.4s-0.5-0.2-1-0.3c-0.2,0-0.4-0.1-0.6-0.2c-0.8-0.2-1.4-0.5-1.8-0.8
				c-0.4-0.3-0.6-0.8-0.6-1.5s0.3-1.3,1-1.7c0.6-0.4,1.5-0.6,2.5-0.6c0.6,0,1.1,0.1,1.7,0.2c0.5,0.1,1,0.3,1.5,0.6l-0.7,1.4
				c-0.3-0.2-0.7-0.3-1.1-0.4s-0.8-0.1-1.2-0.1s-0.7,0-0.9,0.1s-0.3,0.2-0.3,0.4c0,0.2,0.1,0.4,0.3,0.5s0.6,0.2,1.3,0.4
				c0.5,0.1,1,0.3,1.4,0.4c0.4,0.2,0.7,0.4,1,0.7c0.3,0.3,0.4,0.7,0.4,1.2c0,0.7-0.3,1.3-1,1.7c-0.6,0.4-1.5,0.6-2.6,0.6
				C-738.2,130.9-738.9,130.8-739.5,130.6z"/>
			<path id="XMLID_138_" class="st0" d="M-730.9,130.4c-0.6-0.3-1.1-0.8-1.4-1.3c-0.3-0.6-0.5-1.3-0.5-2c0-0.8,0.2-1.4,0.5-2
				s0.8-1,1.4-1.3c0.6-0.3,1.3-0.5,2.2-0.5c0.8,0,1.6,0.2,2.2,0.5c0.6,0.3,1.1,0.8,1.4,1.3c0.3,0.6,0.5,1.3,0.5,2
				c0,0.8-0.2,1.4-0.5,2c-0.3,0.6-0.8,1-1.4,1.3c-0.6,0.3-1.3,0.5-2.2,0.5C-729.6,130.9-730.3,130.7-730.9,130.4z M-727.3,128.6
				c0.3-0.3,0.5-0.9,0.5-1.6s-0.2-1.2-0.5-1.6c-0.3-0.3-0.8-0.5-1.4-0.5c-0.6,0-1.1,0.2-1.4,0.5c-0.3,0.3-0.5,0.9-0.5,1.6
				s0.2,1.2,0.5,1.6c0.3,0.3,0.8,0.5,1.4,0.5S-727.7,128.9-727.3,128.6z"/>
			<path id="XMLID_136_" class="st0" d="M-721.9,130.6c-0.6-0.2-1.1-0.4-1.5-0.7l0.8-1.4c0.4,0.2,0.8,0.4,1.3,0.5s0.9,0.2,1.3,0.2
				s0.7-0.1,0.9-0.2s0.3-0.3,0.3-0.4c0-0.2-0.1-0.3-0.3-0.4s-0.5-0.2-1-0.3c-0.2,0-0.4-0.1-0.6-0.2c-0.8-0.2-1.4-0.5-1.8-0.8
				c-0.4-0.3-0.6-0.8-0.6-1.5s0.3-1.3,1-1.7c0.6-0.4,1.5-0.6,2.5-0.6c0.6,0,1.1,0.1,1.7,0.2c0.5,0.1,1,0.3,1.5,0.6l-0.7,1.4
				c-0.3-0.2-0.7-0.3-1.1-0.4c-0.4-0.1-0.8-0.1-1.2-0.1s-0.7,0-0.9,0.1s-0.3,0.2-0.3,0.4c0,0.2,0.1,0.4,0.3,0.5s0.6,0.2,1.3,0.4
				c0.5,0.1,1,0.3,1.4,0.4c0.4,0.2,0.7,0.4,1,0.7c0.3,0.3,0.4,0.7,0.4,1.2c0,0.7-0.3,1.3-1,1.7c-0.6,0.4-1.5,0.6-2.6,0.6
				C-720.7,130.9-721.3,130.8-721.9,130.6z"/>
		</g>
	</g>
</g>
<ellipse id="XMLID_1_" class="st3" cx="-849" cy="131" rx="2" ry="0.8"/>
<g id="XMLID_2_">
	<g id="XMLID_3_">
		<path id="XMLID_23_" class="st4" d="M41.4,36.5V47c0,0.7,0,1.4-0.1,1.8c0,0.5-0.1,0.8-0.2,1c-0.5,1.3-1.6,2-3.3,2
			c-0.9,0-1.6-0.1-2.1-0.4c-0.5-0.3-0.7-0.6-0.7-1.1c0-0.4,0.1-0.7,0.3-0.9c0.2-0.2,0.5-0.3,0.9-0.3c0,0,0.1,0,0.2,0
			c0.1,0,0.3,0,0.5,0c0.2,0,0.3,0,0.4,0c0.4,0,0.7-0.2,0.8-0.5c0.1-0.3,0.2-0.9,0.2-1.7V36.5c0-0.6,0.1-1.1,0.4-1.4
			c0.3-0.3,0.7-0.5,1.1-0.5c0.5,0,0.8,0.2,1.1,0.5C41.3,35.4,41.4,35.9,41.4,36.5z M39.9,33.2c-0.4,0-0.8-0.1-1.1-0.4
			c-0.3-0.3-0.5-0.6-0.5-1.1c0-0.4,0.2-0.8,0.5-1.1c0.3-0.3,0.7-0.4,1.1-0.4c0.4,0,0.8,0.1,1.1,0.4c0.3,0.3,0.5,0.6,0.5,1.1
			c0,0.5-0.2,0.8-0.5,1.1C40.7,33.1,40.3,33.2,39.9,33.2z"/>
		<path id="XMLID_21_" class="st4" d="M52.6,45.5v-0.4c-0.4,0.5-0.8,0.9-1.2,1.2c-0.4,0.3-0.9,0.6-1.3,0.7c-0.5,0.2-1,0.2-1.7,0.2
			c-0.7,0-1.4-0.2-2-0.5c-0.6-0.3-1.1-0.7-1.4-1.3c-0.4-0.7-0.6-1.6-0.6-2.8v-6.1c0-0.6,0.1-1.1,0.4-1.4c0.3-0.3,0.6-0.5,1.1-0.5
			c0.5,0,0.8,0.2,1.1,0.5c0.3,0.3,0.4,0.8,0.4,1.4v4.9c0,0.7,0.1,1.3,0.2,1.8c0.1,0.5,0.3,0.9,0.7,1.1c0.3,0.3,0.7,0.4,1.3,0.4
			c0.5,0,1-0.2,1.5-0.5c0.5-0.3,0.8-0.7,1-1.2c0.2-0.4,0.3-1.4,0.3-2.9v-3.8c0-0.6,0.1-1.1,0.4-1.4c0.3-0.3,0.7-0.5,1.1-0.5
			c0.5,0,0.8,0.2,1.1,0.5c0.3,0.3,0.4,0.8,0.4,1.4v9c0,0.6-0.1,1-0.4,1.3c-0.3,0.3-0.6,0.4-1,0.4c-0.4,0-0.8-0.2-1-0.5
			C52.7,46.5,52.6,46,52.6,45.5z"/>
		<path id="XMLID_19_" class="st4" d="M61.4,36.4v0.4c0.5-0.7,1.1-1.2,1.8-1.6c0.6-0.3,1.4-0.5,2.2-0.5c0.8,0,1.5,0.2,2.2,0.5
			c0.6,0.4,1.1,0.9,1.4,1.5c0.2,0.4,0.3,0.8,0.4,1.2c0.1,0.4,0.1,1,0.1,1.7v5.7c0,0.6-0.1,1.1-0.4,1.4c-0.3,0.3-0.7,0.5-1.1,0.5
			c-0.5,0-0.8-0.2-1.1-0.5c-0.3-0.3-0.4-0.8-0.4-1.4v-5.1c0-1-0.1-1.8-0.4-2.3c-0.3-0.5-0.8-0.8-1.7-0.8c-0.6,0-1.1,0.2-1.5,0.5
			c-0.5,0.3-0.8,0.8-1,1.4c-0.2,0.5-0.2,1.3-0.2,2.6v3.9c0,0.6-0.1,1.1-0.4,1.4c-0.3,0.3-0.7,0.5-1.1,0.5c-0.4,0-0.8-0.2-1.1-0.5
			c-0.3-0.3-0.4-0.8-0.4-1.4v-8.9c0-0.6,0.1-1,0.4-1.3c0.3-0.3,0.6-0.4,1.1-0.4c0.3,0,0.5,0.1,0.7,0.2c0.2,0.1,0.4,0.3,0.5,0.6
			C61.3,35.7,61.4,36,61.4,36.4z"/>
		<path id="XMLID_9_" class="st4" d="M72.7,34.9h0.3v-1.9c0-0.5,0-0.9,0-1.2c0-0.3,0.1-0.5,0.2-0.7c0.1-0.2,0.3-0.4,0.5-0.5
			c0.2-0.1,0.5-0.2,0.8-0.2c0.4,0,0.7,0.1,1.1,0.4c0.2,0.2,0.3,0.4,0.4,0.7c0.1,0.3,0.1,0.7,0.1,1.2v2.1h1.1c0.4,0,0.8,0.1,1,0.3
			c0.2,0.2,0.3,0.5,0.3,0.8c0,0.4-0.2,0.7-0.5,0.9c-0.3,0.2-0.8,0.2-1.4,0.2h-0.6v5.7c0,0.5,0,0.9,0.1,1.1c0,0.3,0.1,0.5,0.3,0.6
			c0.1,0.2,0.4,0.2,0.7,0.2c0.2,0,0.4,0,0.7-0.1c0.3-0.1,0.6-0.1,0.7-0.1c0.2,0,0.5,0.1,0.7,0.3c0.2,0.2,0.3,0.4,0.3,0.7
			c0,0.5-0.3,0.9-0.8,1.1c-0.5,0.3-1.3,0.4-2.3,0.4c-1,0-1.7-0.2-2.2-0.5c-0.5-0.3-0.8-0.8-1-1.3c-0.2-0.6-0.2-1.3-0.2-2.3v-5.9
			h-0.4c-0.4,0-0.8-0.1-1-0.3c-0.2-0.2-0.4-0.5-0.4-0.8c0-0.3,0.1-0.6,0.4-0.8C71.9,35,72.3,34.9,72.7,34.9z"/>
		<path id="XMLID_6_" class="st5" d="M89.4,45.5c-0.7,0.6-1.5,1-2.2,1.3c-0.7,0.3-1.5,0.4-2.3,0.4c-0.8,0-1.5-0.2-2.1-0.5
			c-0.6-0.3-1.1-0.7-1.4-1.3c-0.3-0.5-0.5-1.1-0.5-1.7c0-0.8,0.3-1.6,0.8-2.2c0.5-0.6,1.3-1,2.2-1.2c0.2,0,0.7-0.1,1.5-0.3
			c0.8-0.2,1.4-0.3,2-0.4c0.6-0.1,1.2-0.3,1.8-0.5c0-0.8-0.2-1.4-0.5-1.8c-0.3-0.4-0.9-0.6-1.8-0.6c-0.8,0-1.4,0.1-1.8,0.3
			c-0.4,0.2-0.7,0.5-1,1c-0.3,0.4-0.5,0.7-0.6,0.9c-0.1,0.1-0.4,0.2-0.8,0.2c-0.3,0-0.6-0.1-0.9-0.3c-0.3-0.2-0.4-0.5-0.4-0.9
			c0-0.5,0.2-1.1,0.6-1.6c0.4-0.5,1-0.9,1.8-1.3c0.8-0.3,1.8-0.5,3-0.5c1.4,0,2.4,0.2,3.2,0.5c0.8,0.3,1.3,0.8,1.6,1.5
			c0.3,0.7,0.5,1.6,0.5,2.8c0,0.7,0,1.3,0,1.8c0,0.5,0,1.1,0,1.7c0,0.6,0.1,1.2,0.3,1.8c0.2,0.6,0.3,1,0.3,1.2
			c0,0.3-0.1,0.6-0.4,0.9c-0.3,0.3-0.6,0.4-1,0.4c-0.3,0-0.6-0.1-0.9-0.4C90,46.5,89.7,46,89.4,45.5z M89.2,41
			c-0.5,0.2-1.1,0.3-2,0.5c-0.9,0.2-1.5,0.3-1.8,0.4c-0.3,0.1-0.6,0.3-1,0.5c-0.3,0.3-0.5,0.6-0.5,1.1c0,0.5,0.2,0.9,0.5,1.2
			c0.4,0.3,0.8,0.5,1.4,0.5c0.6,0,1.2-0.1,1.7-0.4c0.5-0.3,0.9-0.6,1.1-1c0.3-0.5,0.4-1.2,0.4-2.3V41z"/>
		<path class="st6" d="M103.1,32.7c-1-0.5-2.1-0.8-3.2-0.8c-0.9,0-1.6,0.2-2.2,0.4c-0.6-0.3-1.2-0.4-2-0.4c-1.2,0-2.4,0.5-3.2,1.5
			c-0.4-0.3-0.9-0.6-1.4-0.9c-1.1-0.5-2.5-0.7-4.3-0.7c-1.6,0-2.9,0.2-4.1,0.7c-0.8,0.3-1.5,0.8-2.1,1.2c-0.2-0.2-0.3-0.4-0.6-0.6
			c-0.3-0.3-0.7-0.5-1.2-0.7c0-0.5-0.1-1-0.1-1.4c-0.2-0.8-0.6-1.6-1.2-2.2c-0.8-0.8-1.8-1.2-2.9-1.2c-0.8,0-1.5,0.2-2.1,0.6
			c-0.7,0.4-1.2,0.9-1.5,1.5c-0.3,0.6-0.5,1.2-0.6,1.9c0,0.3,0,0.7,0,1.2c-0.2,0.1-0.3,0.2-0.4,0.3c-0.1,0.1-0.1,0.1-0.2,0.2
			c-0.3-0.2-0.5-0.4-0.8-0.5c-1.1-0.6-2.2-0.9-3.5-0.9c-1.2,0-2.2,0.2-3.2,0.7c-0.1,0-0.1-0.1-0.2-0.1c-0.6-0.4-1.4-0.6-2.1-0.6
			c-1.2,0-2.2,0.4-3,1.2c-0.8-0.8-1.8-1.2-3-1.2c-1.2,0-2.3,0.5-3.1,1.3c-0.3,0.3-0.6,0.8-0.8,1.4c-0.2-0.6-0.5-1-0.8-1.4
			c-0.8-0.9-1.9-1.3-3.1-1.3c-0.7,0-1.3,0.2-1.9,0.4c0-0.2,0-0.4,0-0.7c0-1.3-0.5-2.5-1.5-3.2c-0.8-0.7-1.8-1-2.8-1
			c-1.1,0-2.1,0.4-2.9,1.1c-0.9,0.8-1.4,1.9-1.4,3.1c0,0.8,0.2,1.6,0.6,2.3c-0.3,0.6-0.6,1.4-0.6,2.5v9.9c-0.9,0.1-1.6,0.5-2.2,1.2
			c-0.7,0.7-1.1,1.7-1.1,2.8c0,1.5,0.8,2.8,2.2,3.5c0.9,0.5,2,0.7,3.4,0.7c2.8,0,4.9-1.4,5.8-3.6c0.2-0.5,0.3-1,0.4-1.8
			c0-0.2,0-0.4,0-0.6c0.3,0.3,0.7,0.5,1.1,0.7c1,0.5,2.1,0.8,3.3,0.8c0.9,0,1.7-0.1,2.5-0.4c0.3-0.1,0.5-0.2,0.8-0.3
			c0.7,0.5,1.5,0.7,2.3,0.7c1.1,0,2.2-0.4,3-1.3c0.8,0.8,1.8,1.3,3,1.3c1.2,0,2.3-0.5,3.1-1.3c0.4-0.4,0.7-0.9,0.8-1.4
			c0.2,0.6,0.5,1,0.8,1.3c0.8,0.9,1.9,1.4,3.2,1.4c1.2,0,2.4-0.5,3.2-1.4c0.2-0.2,0.3-0.4,0.5-0.6c0.3,0.4,0.7,0.8,1.2,1.1
			c1,0.6,2.2,0.9,3.7,0.9c1.5,0,2.6-0.2,3.5-0.7c0.3-0.1,0.6-0.3,0.8-0.5c0.2,0.1,0.4,0.3,0.7,0.4c1,0.5,2.1,0.8,3.4,0.8
			c1.2,0,2.4-0.2,3.4-0.6c0.2-0.1,0.4-0.2,0.6-0.3c0.9,0.7,1.8,0.9,2.5,0.9c0.8,0,1.6-0.2,2.3-0.7c0.7,0.4,1.4,0.7,2.2,0.7
			c1.2,0,2.3-0.5,3.1-1.3c0.5-0.6,1.2-1.6,1.2-3.3v-2.6c0-0.8,0-1.5,0.1-2.1c0-0.1,0-0.3,0-0.4c0.6,0.2,0.9,0.2,1.3,0.2
			c1,0,2-0.4,2.7-1.1c0.8-0.8,1.3-1.8,1.3-2.9C105.5,34.9,104.6,33.5,103.1,32.7z M79,39.5c0.1,0.2,0.2,0.4,0.3,0.6
			c-0.2,0.2-0.3,0.4-0.4,0.6L79,39.5C79,39.6,79,39.5,79,39.5z"/>
	</g>
</g>
<g id="XMLID_10_">
	<g id="XMLID_11_">
		<path id="XMLID_17_" class="st4" d="M40.4,36.2V47c0,0.8,0,1.4-0.1,1.9c-0.1,0.5-0.1,0.8-0.2,1.1c-0.5,1.4-1.7,2-3.4,2
			c-1,0-1.7-0.1-2.2-0.4s-0.7-0.6-0.7-1.2c0-0.4,0.1-0.7,0.3-0.9c0.2-0.2,0.5-0.4,0.9-0.4c0,0,0.1,0,0.2,0c0.1,0,0.3,0,0.5,0
			c0.2,0,0.3,0,0.4,0c0.4,0,0.7-0.2,0.9-0.5c0.1-0.3,0.2-0.9,0.2-1.8V36.2c0-0.6,0.1-1.1,0.4-1.4c0.3-0.3,0.7-0.5,1.2-0.5
			c0.5,0,0.8,0.2,1.1,0.5C40.3,35.1,40.4,35.6,40.4,36.2z M38.8,32.8c-0.4,0-0.8-0.1-1.1-0.4c-0.3-0.3-0.5-0.7-0.5-1.2
			c0-0.5,0.2-0.8,0.5-1.1s0.7-0.4,1.1-0.4c0.4,0,0.8,0.1,1.1,0.4c0.3,0.3,0.5,0.6,0.5,1.2c0,0.5-0.2,0.9-0.5,1.1
			C39.6,32.7,39.3,32.8,38.8,32.8z"/>
		<path id="XMLID_16_" class="st4" d="M52,45.5v-0.4c-0.4,0.5-0.8,0.9-1.2,1.2c-0.4,0.3-0.9,0.6-1.4,0.7c-0.5,0.2-1.1,0.2-1.7,0.2
			c-0.8,0-1.5-0.2-2.1-0.5c-0.6-0.3-1.1-0.8-1.4-1.3c-0.4-0.7-0.6-1.6-0.6-2.9v-6.3c0-0.6,0.1-1.1,0.4-1.4c0.3-0.3,0.7-0.5,1.1-0.5
			c0.5,0,0.9,0.2,1.2,0.5c0.3,0.3,0.4,0.8,0.4,1.4v5.1c0,0.7,0.1,1.4,0.2,1.9c0.1,0.5,0.3,0.9,0.7,1.2c0.3,0.3,0.8,0.4,1.3,0.4
			c0.5,0,1-0.2,1.5-0.5c0.5-0.3,0.8-0.7,1-1.2c0.2-0.5,0.3-1.4,0.3-3v-3.9c0-0.6,0.1-1.1,0.4-1.4c0.3-0.3,0.7-0.5,1.2-0.5
			c0.5,0,0.9,0.2,1.1,0.5c0.3,0.3,0.4,0.8,0.4,1.4v9.2c0,0.6-0.1,1.1-0.4,1.4c-0.3,0.3-0.6,0.5-1.1,0.5s-0.8-0.2-1.1-0.5
			C52.1,46.5,52,46,52,45.5z"/>
		<path id="XMLID_15_" class="st4" d="M61,36.1v0.4c0.6-0.7,1.2-1.3,1.8-1.6c0.7-0.3,1.4-0.5,2.3-0.5c0.8,0,1.6,0.2,2.3,0.5
			c0.7,0.4,1.2,0.9,1.5,1.6c0.2,0.4,0.3,0.8,0.4,1.3c0.1,0.5,0.1,1,0.1,1.7v5.9c0,0.6-0.1,1.1-0.4,1.4c-0.3,0.3-0.7,0.5-1.1,0.5
			c-0.5,0-0.9-0.2-1.2-0.5c-0.3-0.3-0.4-0.8-0.4-1.4V40c0-1-0.1-1.9-0.4-2.4c-0.3-0.6-0.9-0.8-1.7-0.8c-0.6,0-1.1,0.2-1.6,0.5
			c-0.5,0.3-0.8,0.8-1,1.4c-0.2,0.5-0.2,1.4-0.2,2.7v4c0,0.6-0.1,1.1-0.4,1.5c-0.3,0.3-0.7,0.5-1.2,0.5c-0.5,0-0.8-0.2-1.1-0.5
			C58.2,46.4,58,46,58,45.3v-9.2c0-0.6,0.1-1.1,0.4-1.4c0.3-0.3,0.6-0.4,1.1-0.4c0.3,0,0.5,0.1,0.8,0.2c0.2,0.1,0.4,0.3,0.5,0.6
			C60.9,35.4,61,35.7,61,36.1z"/>
		<path id="XMLID_14_" class="st4" d="M72.7,34.6h0.3v-1.9c0-0.5,0-0.9,0-1.2c0-0.3,0.1-0.5,0.2-0.8c0.1-0.2,0.3-0.4,0.5-0.5
			c0.2-0.1,0.5-0.2,0.8-0.2c0.4,0,0.8,0.2,1.1,0.5c0.2,0.2,0.4,0.4,0.4,0.7s0.1,0.7,0.1,1.2v2.2h1.2c0.5,0,0.8,0.1,1,0.3
			c0.2,0.2,0.4,0.5,0.4,0.8c0,0.4-0.2,0.7-0.5,0.9c-0.3,0.2-0.8,0.3-1.5,0.3h-0.6v5.9c0,0.5,0,0.9,0.1,1.1c0,0.3,0.1,0.5,0.3,0.7
			c0.2,0.2,0.4,0.3,0.7,0.3c0.2,0,0.4,0,0.8-0.1c0.3-0.1,0.6-0.1,0.7-0.1c0.3,0,0.5,0.1,0.7,0.3c0.2,0.2,0.3,0.5,0.3,0.8
			c0,0.5-0.3,0.9-0.8,1.2c-0.6,0.3-1.4,0.4-2.4,0.4c-1,0-1.7-0.2-2.3-0.5c-0.5-0.3-0.8-0.8-1-1.4c-0.2-0.6-0.2-1.4-0.2-2.4v-6.1
			h-0.4c-0.5,0-0.8-0.1-1.1-0.3c-0.2-0.2-0.4-0.5-0.4-0.8c0-0.3,0.1-0.6,0.4-0.8C71.9,34.7,72.2,34.6,72.7,34.6z"/>
		<path id="XMLID_13_" class="st5" d="M89.9,45.5c-0.8,0.6-1.5,1-2.2,1.3c-0.7,0.3-1.5,0.4-2.4,0.4c-0.8,0-1.5-0.2-2.2-0.5
			c-0.6-0.3-1.1-0.8-1.4-1.3c-0.3-0.6-0.5-1.2-0.5-1.8c0-0.9,0.3-1.6,0.8-2.2c0.6-0.6,1.3-1,2.3-1.2c0.2,0,0.7-0.2,1.5-0.3
			c0.8-0.2,1.5-0.3,2.1-0.4c0.6-0.1,1.2-0.3,1.9-0.5c0-0.8-0.2-1.5-0.5-1.8c-0.3-0.4-0.9-0.6-1.9-0.6c-0.8,0-1.4,0.1-1.8,0.3
			c-0.4,0.2-0.8,0.6-1,1c-0.3,0.5-0.5,0.7-0.6,0.9C83.7,38.9,83.4,39,83,39c-0.4,0-0.7-0.1-0.9-0.3c-0.3-0.2-0.4-0.5-0.4-0.9
			c0-0.6,0.2-1.1,0.6-1.6c0.4-0.5,1-1,1.9-1.3c0.8-0.3,1.9-0.5,3.1-0.5c1.4,0,2.5,0.2,3.3,0.5c0.8,0.3,1.4,0.9,1.7,1.6
			c0.3,0.7,0.5,1.7,0.5,2.8c0,0.7,0,1.4,0,1.9c0,0.5,0,1.1,0,1.7c0,0.6,0.1,1.2,0.3,1.9c0.2,0.6,0.3,1.1,0.3,1.3
			c0,0.3-0.2,0.6-0.5,0.9c-0.3,0.3-0.7,0.4-1,0.4c-0.3,0-0.6-0.2-1-0.5C90.6,46.5,90.2,46.1,89.9,45.5z M89.7,40.9
			c-0.5,0.2-1.1,0.4-2,0.5c-0.9,0.2-1.5,0.3-1.8,0.4c-0.3,0.1-0.7,0.3-1,0.5c-0.3,0.3-0.5,0.6-0.5,1.1c0,0.5,0.2,0.9,0.5,1.2
			c0.4,0.3,0.8,0.5,1.4,0.5c0.6,0,1.2-0.1,1.7-0.4c0.5-0.3,0.9-0.6,1.2-1.1c0.3-0.5,0.4-1.3,0.4-2.4V40.9z"/>
		<path id="XMLID_12_" class="st5" d="M98.1,42.7v2.7c0,0.6-0.2,1.1-0.5,1.5c-0.3,0.3-0.7,0.5-1.2,0.5c-0.5,0-0.8-0.2-1.1-0.5
			c-0.3-0.3-0.4-0.8-0.4-1.4v-8.9c0-1.4,0.5-2.1,1.6-2.1c0.5,0,0.9,0.2,1.1,0.5c0.2,0.3,0.4,0.8,0.4,1.5c0.4-0.7,0.8-1.1,1.2-1.5
			c0.4-0.3,0.9-0.5,1.6-0.5c0.7,0,1.3,0.2,1.9,0.5c0.6,0.3,0.9,0.8,0.9,1.3c0,0.4-0.1,0.7-0.4,1c-0.3,0.3-0.6,0.4-0.9,0.4
			c-0.1,0-0.4-0.1-0.8-0.2c-0.4-0.1-0.8-0.2-1.2-0.2c-0.5,0-0.8,0.1-1.1,0.4c-0.3,0.2-0.5,0.6-0.7,1.1c-0.2,0.5-0.3,1.1-0.3,1.7
			C98.1,40.9,98.1,41.7,98.1,42.7z"/>
	</g>
</g>
</svg>
