<?xml version="1.0" encoding="utf-8"?>
<!-- Generator: Adobe Illustrator 19.0.0, SVG Export Plug-In . SVG Version: 6.00 Build 0)  -->
<svg version="1.1" id="Capa_1" xmlns="http://www.w3.org/2000/svg" xmlns:xlink="http://www.w3.org/1999/xlink" x="0px" y="0px"
	 viewBox="194 -40.2 467.5 160.2" style="enable-background:new 194 -40.2 467.5 160.2;" xml:space="preserve">
<style type="text/css">
	.st0{fill:#FFFFFF;}
	.st1{fill:#585857;}
	.st2{fill:#39A8E0;}
	.st3{opacity:0.56;fill:#9C9B9B;}
	.st4{fill:#05A099;}
	.st5{fill:#1E1E1C;}
</style>
<g>
	<path class="st0" d="M641.4-7.7c-5.1-2.7-10.4-4.1-15.9-4.1c-4,0-7.6,0.7-10.8,2.1c-2.8-1.4-6.1-2.1-9.5-2.1
		c-5.8,0-11.7,2.2-15.8,6.9c-2-1.4-4.1-2.7-6.5-3.7c-5.6-2.3-12.4-3.4-20.9-3.4c-7.7,0-14.4,1.2-20.1,3.5c-3.8,1.5-7,3.4-9.7,5.6
		c-0.6-0.8-1.3-1.5-2-2.2c-0.1-0.1-0.2-0.2-0.3-0.3c-1.3-1.2-3.2-2.5-5.7-3.5c-0.1-2.4-0.3-4.4-0.7-6.3c-0.9-4.3-2.9-8-6-10.9l0,0
		c-4.2-4-9.3-6.1-15-6.1c-3.7,0-7.3,1-10.5,2.7l0,0c-3.4,1.9-6.2,4.6-8,8c-1.5,2.6-2.4,5.5-2.8,8.9c-0.1,0.2-0.1,0.3-0.1,0.5
		c-0.1,1.4-0.2,3.1-0.2,5.1c-0.7,0.5-1.4,1-2,1.5c-0.1,0.1-0.2,0.2-0.3,0.3c-1.1-0.8-2.2-1.6-3.5-2.2c-5.2-2.9-11.1-4.3-17.5-4.3
		c-5.6,0-10.7,1-15.4,3.1c-0.2-0.1-0.3-0.2-0.5-0.3c-3.2-1.8-6.9-2.8-10.7-2.8c-5.5,0-10.5,2-14.4,5.5c-3.9-3.6-9-5.5-14.5-5.5
		c-6.2,0-11.8,2.4-15.8,6.8c-1.2,1.2-2.4,2.9-3.5,5.1c-1-2.1-2.3-3.8-3.5-5.1c-4.1-4.4-9.7-6.8-15.9-6.8c-2.9,0-5.7,0.6-8.2,1.6
		c0-0.6,0.1-1.2,0.1-1.8c0-6.5-2.6-12.2-7.3-16.2c-0.1-0.1-0.1-0.2-0.2-0.2c-4-3.3-8.9-5-14.1-5c-5.6,0-10.8,2-14.9,5.8
		C314.4-23.6,312-18,312-12c0,4.1,1,7.8,2.9,11.1c-1.1,2-1.9,4.2-2.3,6.5c-5.9-6.5-13.8-11.1-23-12.7c-0.6-0.1-1.1-0.2-1.6-0.3
		c-0.7-1.4-1.5-2.5-1.9-3.2c-7.2-10.9-21.7-23.7-39-23.7c-6.3,0-12.6,1.8-17.8,5.3c-5.6,3.7-10,8.5-13.2,13.9
		c-1.7,2.5-3.2,5.2-4.3,8c-3.8,9.5-4,19.8-0.5,29.2c-6.9,6.6-11.1,15.2-12.2,24.9c-1.2,10.9,1.8,21.7,8.6,30.4
		c6.4,8.3,16.1,12.8,27.3,12.8c10.8,0,23-4.4,32.4-11.7c0.6-0.5,1.5-1.1,2.4-2c2.5,0.5,4.7,0.5,6,0.5h0.6c6.9,0,13.8-1.3,20.2-3.7
		c-0.4,1.6-0.6,3.3-0.6,5c0,7.6,3.9,14.1,10.8,17.9c0.2,0.1,0.3,0.1,0.4,0.2c4.4,2.3,9.9,3.4,16.8,3.4c7,0,13.2-1.7,18.2-5
		c0.3,1.8,0.9,3.6,2,5.3c3.6,5.8,9.9,9.2,16.8,9.2c2.8,0,5.5-0.6,7.8-1.6c2.4,1,5.1,1.5,8,1.5c1.1,0,2.1-0.1,3.1-0.2
		c0.6,0.1,1.2,0.1,1.9,0.1h1.2c0.9,0,218.6,0,220.3,0h1.3c1.3,0,2.5-0.2,3.7-0.5c1.6,0.4,3.3,0.6,5.1,0.6c1,0,2.1-0.1,3.1-0.2
		c0.6,0.1,1.1,0.1,1.7,0.1h1.2c7.8,0,14.2-6.3,14.2-14.2v-8.4c0-8-4.3-14.5-11-17.4c2.4-3.1,4.6-7.9,4.6-15V41.7
		c0-3.8,0.2-7.3,0.4-10.2c0-0.3,0.1-0.6,0.1-0.9c2.3,0.6,3.9,0.9,5.6,0.9c5,0,9.7-1.9,13.7-5.5c0.1-0.1,0.2-0.1,0.2-0.2
		c4.1-3.8,6.3-9.1,6.3-14.8C653.3,3.1,648.9-3.7,641.4-7.7z M524.3,28.9c-0.1,0.1-0.1,0.2-0.2,0.2v-0.5
		C524.2,28.7,524.3,28.8,524.3,28.9z M452.1,67.7c-0.5-0.1-1-0.1-1.6-0.1h-0.8c0.4-0.6,0.8-1.3,1.1-2.1
		C451.3,66.3,451.7,67,452.1,67.7z"/>
</g>
<g id="XMLID_110_">
	<g id="XMLID_111_">
		<path id="XMLID_123_" class="st1" d="M338.4,11.8v50.9c0,3.6-0.1,6.6-0.4,8.9c-0.2,2.3-0.6,3.9-1,5c-2.5,6.4-7.8,9.6-15.9,9.6
			c-4.5,0-8-0.6-10.3-1.9c-2.3-1.2-3.5-3.1-3.5-5.4c0-1.8,0.5-3.2,1.6-4.3c1.1-1.1,2.5-1.7,4.2-1.7c0.2,0,0.6,0,1.1,0.1
			c0.5,0.1,1.2,0.1,2.2,0.2c1,0.1,1.6,0.1,2,0.1c2,0,3.4-0.8,4-2.4c0.7-1.6,1-4.4,1-8.5V11.8c0-3,0.7-5.2,2.1-6.7
			c1.4-1.5,3.2-2.3,5.5-2.3c2.2,0,4,0.7,5.4,2.2C337.7,6.6,338.4,8.8,338.4,11.8z M331-4.1c-2.1,0-3.9-0.6-5.4-1.9
			c-1.5-1.3-2.2-3.1-2.2-5.4c0-2.1,0.8-3.9,2.3-5.2s3.3-2.1,5.3-2.1c1.9,0,3.7,0.6,5.2,1.9c1.5,1.2,2.3,3.1,2.3,5.4
			c0,2.3-0.7,4.1-2.2,5.4C334.7-4.8,333-4.1,331-4.1z"/>
		<path id="XMLID_121_" class="st1" d="M392.7,55.4v-1.9c-1.8,2.3-3.7,4.2-5.7,5.7c-2,1.5-4.1,2.7-6.5,3.4c-2.3,0.8-5,1.1-8,1.1
			c-3.6,0-6.9-0.8-9.8-2.3c-2.9-1.5-5.1-3.6-6.7-6.2c-1.9-3.2-2.8-7.8-2.8-13.7V11.8c0-3,0.7-5.2,2-6.7c1.4-1.5,3.2-2.2,5.4-2.2
			c2.3,0,4.1,0.8,5.5,2.3c1.4,1.5,2.1,3.7,2.1,6.7v24c0,3.5,0.3,6.4,0.9,8.8c0.6,2.4,1.6,4.2,3.2,5.6c1.5,1.3,3.6,2,6.2,2
			c2.5,0,4.9-0.8,7.1-2.3c2.2-1.5,3.9-3.5,4.9-5.9c0.8-2.1,1.3-6.8,1.3-14V11.8c0-3,0.7-5.2,2.1-6.7c1.4-1.5,3.2-2.3,5.4-2.3
			c2.2,0,4,0.7,5.4,2.2c1.4,1.5,2,3.7,2,6.7v43.5c0,2.9-0.7,5-2,6.4c-1.3,1.4-3,2.1-5,2.1s-3.7-0.7-5.1-2.2
			C393.4,60.1,392.7,58.1,392.7,55.4z"/>
		<path id="XMLID_119_" class="st1" d="M435.4,11.1V13c2.6-3.5,5.5-6,8.7-7.7c3.1-1.6,6.7-2.4,10.8-2.4c4,0,7.5,0.9,10.6,2.6
			c3.1,1.7,5.4,4.2,7,7.3c1,1.8,1.6,3.8,1.9,5.9c0.3,2.1,0.4,4.8,0.4,8.1v27.9c0,3-0.7,5.3-2.1,6.8c-1.4,1.5-3.2,2.3-5.4,2.3
			c-2.2,0-4-0.8-5.4-2.4c-1.4-1.6-2.1-3.8-2.1-6.8v-25c0-4.9-0.7-8.7-2.1-11.3c-1.4-2.6-4.1-3.9-8.2-3.9c-2.7,0-5.1,0.8-7.3,2.4
			c-2.2,1.6-3.8,3.8-4.8,6.6c-0.7,2.2-1.1,6.4-1.1,12.5v18.8c0,3-0.7,5.3-2.1,6.8c-1.4,1.5-3.2,2.3-5.5,2.3c-2.2,0-3.9-0.8-5.3-2.4
			c-1.4-1.6-2.1-3.8-2.1-6.8V11.4c0-2.9,0.6-5,1.9-6.4c1.2-1.4,2.9-2.1,5.1-2.1c1.3,0,2.5,0.3,3.6,0.9c1.1,0.6,1.9,1.6,2.6,2.8
			C435.1,7.8,435.4,9.3,435.4,11.1z"/>
		<path id="XMLID_117_" class="st1" d="M490.6,4.2h1.6v-9c0-2.4,0.1-4.3,0.2-5.7s0.5-2.6,1.1-3.5c0.6-1,1.4-1.9,2.5-2.5
			c1.1-0.6,2.3-1,3.7-1c1.9,0,3.6,0.7,5.2,2.1c1,1,1.7,2.1,2,3.5c0.3,1.4,0.4,3.3,0.4,5.9V4.2h5.5c2.1,0,3.7,0.5,4.9,1.5
			c1.1,1,1.7,2.3,1.7,3.9c0,2-0.8,3.4-2.4,4.2c-1.6,0.8-3.9,1.2-6.8,1.2h-2.8v27.6c0,2.3,0.1,4.1,0.2,5.4c0.2,1.3,0.6,2.3,1.3,3.1
			s1.9,1.2,3.5,1.2c0.9,0,2.1-0.2,3.6-0.5c1.5-0.3,2.7-0.5,3.5-0.5c1.2,0,2.3,0.5,3.3,1.5c1,1,1.5,2.2,1.5,3.6c0,2.4-1.3,4.3-4,5.6
			c-2.6,1.3-6.4,1.9-11.4,1.9c-4.7,0-8.2-0.8-10.7-2.4c-2.4-1.6-4-3.8-4.8-6.5c-0.8-2.8-1.1-6.5-1.1-11.2V15h-2
			c-2.2,0-3.8-0.5-4.9-1.5c-1.1-1-1.7-2.3-1.7-3.9c0-1.6,0.6-2.9,1.8-3.9C486.6,4.7,488.3,4.2,490.6,4.2z"/>
		<path id="XMLID_114_" class="st2" d="M571.3,55.4c-3.6,2.8-7.1,4.9-10.5,6.3c-3.4,1.4-7.2,2.1-11.4,2.1c-3.8,0-7.2-0.8-10.1-2.3
			c-2.9-1.5-5.2-3.6-6.7-6.2c-1.6-2.6-2.4-5.4-2.4-8.5c0-4.1,1.3-7.6,3.9-10.5s6.2-4.8,10.7-5.8c1-0.2,3.3-0.7,7.1-1.5
			c3.8-0.8,7-1.5,9.7-2.1c2.7-0.6,5.6-1.4,8.8-2.3c-0.2-4-1-6.9-2.4-8.7c-1.4-1.8-4.3-2.8-8.8-2.8c-3.8,0-6.7,0.5-8.6,1.6
			c-1.9,1.1-3.6,2.7-4.9,4.8c-1.4,2.1-2.3,3.5-2.9,4.2c-0.6,0.7-1.8,1-3.7,1c-1.7,0-3.1-0.5-4.4-1.6c-1.2-1.1-1.8-2.5-1.8-4.1
			c0-2.6,0.9-5.2,2.8-7.7c1.9-2.5,4.8-4.5,8.7-6.2c4-1.6,8.9-2.4,14.8-2.4c6.6,0,11.8,0.8,15.6,2.3c3.8,1.6,6.4,4,8,7.4
			c1.6,3.4,2.3,7.8,2.3,13.4c0,3.5,0,6.5,0,9c0,2.5,0,5.2-0.1,8.2c0,2.8,0.5,5.8,1.4,8.8c0.9,3.1,1.4,5,1.4,5.9
			c0,1.5-0.7,2.9-2.2,4.2c-1.4,1.3-3.1,1.9-4.9,1.9c-1.5,0-3.1-0.7-4.6-2.2C574.6,60.2,573,58.1,571.3,55.4z M570.3,33.7
			c-2.2,0.8-5.4,1.7-9.6,2.6c-4.2,0.9-7.1,1.6-8.7,2c-1.6,0.4-3.2,1.2-4.6,2.5c-1.5,1.2-2.2,2.9-2.2,5.1c0,2.3,0.9,4.2,2.6,5.8
			c1.7,1.6,4,2.4,6.8,2.4c3,0,5.7-0.6,8.2-2c2.5-1.3,4.3-3,5.5-5c1.4-2.3,2-6,2-11.2V33.7z"/>
		<path id="XMLID_112_" class="st2" d="M610.1,42.2v12.5c0,3-0.7,5.3-2.1,6.8c-1.4,1.5-3.2,2.3-5.4,2.3c-2.2,0-3.9-0.8-5.3-2.3
			c-1.4-1.5-2.1-3.8-2.1-6.8V13c0-6.7,2.4-10.1,7.3-10.1c2.5,0,4.3,0.8,5.4,2.4c1.1,1.6,1.7,3.9,1.8,7c1.8-3.1,3.6-5.4,5.5-7
			c1.9-1.6,4.4-2.4,7.6-2.4c3.2,0,6.2,0.8,9.2,2.4c3,1.6,4.5,3.7,4.5,6.3c0,1.8-0.6,3.3-1.9,4.5c-1.3,1.2-2.6,1.8-4.1,1.8
			c-0.5,0-1.9-0.3-4-1c-2.1-0.7-4-1-5.6-1c-2.2,0-4,0.6-5.4,1.7c-1.4,1.2-2.5,2.9-3.2,5.1c-0.8,2.3-1.3,5-1.6,8.1
			C610.2,33.9,610.1,37.7,610.1,42.2z"/>
	</g>
</g>
<g id="XMLID_102_">
	<path id="XMLID_109_" class="st3" d="M242,46.4c-12-9.2-13.1-24.5-23.3-13.9c-10.2,10.6-9.7,27.8,1.2,38.3s29,3.5,39.3-7.1
		C269.4,53,254,55.6,242,46.4z"/>
	<path id="XMLID_108_" class="st3" d="M272.9,38.9c1.9-15-8.2-26.5,6.5-26.3c14.8,0.2,26.6,12.6,26.4,27.9s-17.9,23.1-32.7,22.9
		C258.3,63.1,271,54,272.9,38.9z"/>
	<path id="XMLID_107_" class="st3" d="M248.9,14.3c-14.5,4.5-20.7,18.5-26.7,5s0.5-29.4,14.4-35.6S265.1-9.5,271.1,4
		S263.5,9.7,248.9,14.3z"/>
	<path id="XMLID_106_" class="st2" d="M241.3,48.1C230.7,37.3,231.9,22,220.2,31c-11.7,9-13.5,26.1-4.2,38.1s28.2,7.6,39.9-1.5
		C267.5,58.6,251.9,59,241.3,48.1z"/>
	<path id="XMLID_105_" class="st2" d="M273.8,32.3c4.2-14.5-3.9-27.5,10.6-25S308.6,24,306,39c-2.6,15-21.4,19.9-35.9,17.4
		C255.6,53.9,269.5,46.9,273.8,32.3z"/>
	<path id="XMLID_104_" class="st2" d="M251.3,11.4c-13.5,6.8-17.4,21.7-25.5,9.3s-4.4-29.1,8.3-37.4c12.7-8.4,29.2,2,37.3,14.3
		S264.9,4.5,251.3,11.4z"/>
	<path id="XMLID_103_" class="st4" d="M262,35.5c3.4-4.6,4.4-9.6,0.3-13.4s-10.6-3.4-14.5,0.8s-1,11,3.1,14.8
		C255.1,41.5,258.7,40.2,262,35.5z"/>
</g>
<g>
	<path class="st5" d="M353.3,93.1l0.8-0.9c1,1.4,2.3,2.2,3.9,2.2c2.4,0,3.5-1.3,3.5-4.2V78.9H355v-1.2h7.8v12.5
		c0,3.6-1.6,5.4-4.8,5.4C356.1,95.6,354.3,94.7,353.3,93.1z"/>
	<path class="st5" d="M380.1,82.3v13.2h-1.2v-2.8c-0.9,1.9-2.7,2.9-5,2.9c-3.4,0-5.5-1.9-5.5-5.6v-7.7h1.3v7.6c0,3,1.6,4.6,4.4,4.6
		c3,0,4.8-2,4.8-5.2v-7.1H380.1z"/>
	<path class="st5" d="M397.3,87.8v7.7h-1.3v-7.6c0-3-1.6-4.6-4.3-4.6c-3.1,0-5,2-5,5.2v7.1h-1.3V82.3h1.2v2.9c0.9-1.9,2.7-3,5.3-3
		C395.2,82.2,397.3,84.1,397.3,87.8z"/>
	<path class="st5" d="M409.1,94.7c-0.7,0.6-1.7,0.9-2.7,0.9c-2.3,0-3.6-1.4-3.6-3.6v-8.7h-2.4v-1.1h2.4v-2.9h1.3v2.9h4.2v1.1h-4.2
		v8.5c0,1.7,0.8,2.6,2.5,2.6c0.8,0,1.5-0.3,2.1-0.7L409.1,94.7z"/>
	<path class="st5" d="M410.7,88.9c0-3.9,2.8-6.7,6.6-6.7c3.8,0,6.6,2.8,6.6,6.7c0,3.9-2.8,6.7-6.6,6.7
		C413.5,95.6,410.7,92.8,410.7,88.9z M422.7,88.9c0-3.3-2.3-5.6-5.3-5.6c-3,0-5.3,2.3-5.3,5.6s2.3,5.6,5.3,5.6
		C420.4,94.5,422.7,92.2,422.7,88.9z"/>
	<path class="st5" d="M426,93.9l0.6-1c1,0.9,2.8,1.6,4.8,1.6c2.8,0,3.9-1,3.9-2.5c0-3.9-8.8-1-8.8-6.2c0-2,1.7-3.6,5-3.6
		c1.7,0,3.5,0.5,4.5,1.3l-0.6,1c-1.1-0.8-2.6-1.2-4-1.2c-2.6,0-3.7,1.1-3.7,2.5c0,4,8.8,1.2,8.8,6.2c0,2.2-1.9,3.6-5.2,3.6
		C429.1,95.6,427,94.9,426,93.9z"/>
	<path class="st5" d="M459.8,88.9c0,4-2.8,6.7-6.5,6.7c-2.3,0-4.3-1.1-5.4-3.1v7.9h-1.3V82.3h1.2v3.1c1-2,3-3.2,5.4-3.2
		C456.9,82.2,459.8,84.9,459.8,88.9z M458.5,88.9c0-3.3-2.3-5.6-5.4-5.6s-5.3,2.3-5.3,5.6s2.3,5.6,5.3,5.6S458.5,92.2,458.5,88.9z"
		/>
	<path class="st5" d="M462.3,88.9c0-3.9,2.8-6.7,6.6-6.7s6.6,2.8,6.6,6.7c0,3.9-2.8,6.7-6.6,6.7S462.3,92.8,462.3,88.9z M474.2,88.9
		c0-3.3-2.3-5.6-5.3-5.6s-5.3,2.3-5.3,5.6s2.3,5.6,5.3,5.6S474.2,92.2,474.2,88.9z"/>
	<path class="st5" d="M485.7,82.2v1.2c-0.1,0-0.2,0-0.3,0c-2.9,0-4.7,2-4.7,5.2v6.9h-1.3V82.3h1.2v2.9
		C481.5,83.2,483.2,82.2,485.7,82.2z"/>
	<path class="st5" d="M507.4,90.5H497l-2.3,5h-1.4l8.2-17.8h1.3l8.2,17.8h-1.4L507.4,90.5z M506.9,89.4l-4.7-10.3l-4.6,10.3H506.9z"
		/>
	<path class="st5" d="M520.1,82.2v1.2c-0.1,0-0.2,0-0.3,0c-2.9,0-4.7,2-4.7,5.2v6.9h-1.3V82.3h1.2v2.9
		C515.9,83.2,517.6,82.2,520.1,82.2z"/>
	<path class="st5" d="M535.4,82.3v11.8c0,4.4-2.2,6.4-6.4,6.4c-2.4,0-4.7-0.8-6.1-2.1l0.7-1c1.3,1.2,3.2,1.9,5.4,1.9
		c3.5,0,5.2-1.6,5.2-5.2V92c-1.1,1.9-3.1,3-5.5,3c-3.8,0-6.6-2.7-6.6-6.4c0-3.8,2.8-6.4,6.6-6.4c2.4,0,4.5,1.1,5.6,3.1v-3H535.4z
		 M534.2,88.6c0-3.1-2.3-5.3-5.4-5.3c-3.1,0-5.4,2.2-5.4,5.3s2.3,5.3,5.4,5.3C531.9,93.9,534.2,91.7,534.2,88.6z"/>
	<path class="st5" d="M552,89.2h-11.4c0.1,3.1,2.4,5.3,5.6,5.3c1.7,0,3.2-0.6,4.2-1.9l0.7,0.8c-1.2,1.4-3,2.2-5,2.2
		c-4,0-6.8-2.8-6.8-6.7c0-3.9,2.7-6.7,6.3-6.7c3.6,0,6.3,2.7,6.3,6.7C552,88.9,552,89.1,552,89.2z M540.6,88.2h10.2
		c-0.2-2.9-2.3-4.9-5.1-4.9C542.9,83.3,540.8,85.3,540.6,88.2z"/>
	<path class="st5" d="M567.8,87.8v7.7h-1.3v-7.6c0-3-1.6-4.6-4.3-4.6c-3.1,0-5,2-5,5.2v7.1H556V82.3h1.2v2.9c0.9-1.9,2.7-3,5.3-3
		C565.7,82.2,567.8,84.1,567.8,87.8z"/>
	<path class="st5" d="M579.6,94.7c-0.7,0.6-1.7,0.9-2.7,0.9c-2.3,0-3.6-1.4-3.6-3.6v-8.7h-2.4v-1.1h2.4v-2.9h1.3v2.9h4.2v1.1h-4.2
		v8.5c0,1.7,0.8,2.6,2.5,2.6c0.8,0,1.5-0.3,2.1-0.7L579.6,94.7z"/>
	<path class="st5" d="M582.7,78c0-0.6,0.5-1,1-1s1,0.5,1,1c0,0.6-0.5,1-1,1S582.7,78.6,582.7,78z M583.1,82.3h1.3v13.2h-1.3V82.3z"
		/>
	<path class="st5" d="M601.6,87.8v7.7h-1.3v-7.6c0-3-1.6-4.6-4.3-4.6c-3.1,0-5,2-5,5.2v7.1h-1.3V82.3h1.2v2.9c0.9-1.9,2.7-3,5.3-3
		C599.5,82.2,601.6,84.1,601.6,87.8z"/>
	<path class="st5" d="M616.4,87.1v8.4h-1.2v-2.4c-0.8,1.5-2.5,2.5-4.8,2.5c-3,0-4.8-1.5-4.8-3.8c0-2,1.3-3.7,4.9-3.7h4.5V87
		c0-2.5-1.3-3.8-3.9-3.8c-1.8,0-3.5,0.7-4.6,1.7L606,84c1.3-1.2,3.2-1.9,5.3-1.9C614.6,82.2,616.4,83.8,616.4,87.1z M615.1,91.6
		v-2.5h-4.5c-2.7,0-3.7,1.1-3.7,2.7c0,1.7,1.3,2.8,3.7,2.8C612.8,94.6,614.4,93.5,615.1,91.6z"/>
</g>
</svg>
